<svg width="32" height="32" viewBox="0 0 32 32" fill="none" xmlns="http://www.w3.org/2000/svg">
  <rect width="32" height="32" rx="6" fill="#3B82F6"/>
  <path d="M8 18c0-1.5.5-3 1.5-4S12 12 13.5 12s3 .5 4 1.5 1.5 2.5 1.5 4v2c0 1.5-.5 3-1.5 4s-2.5 1.5-4 1.5-3-.5-4-1.5S8 21.5 8 20v-2z" fill="white"/>
  <path d="M13 16c0-.5.2-1 .6-1.4s.9-.6 1.4-.6 1 .2 1.4.6.6.9.6 1.4v1c0 .5-.2 1-.6 1.4s-.9.6-1.4.6-1-.2-1.4-.6-.6-.9-.6-1.4v-1z" fill="#3B82F6"/>
  <circle cx="14" cy="15" r="1" fill="white"/>
  <circle cx="18" cy="15" r="1" fill="white"/>
  <path d="M20 18c0-1 .3-2 .8-2.8s1.2-.8 2.2-.8 2 .3 2.8.8.8 1.8.8 2.8v1c0 1-.3 2-.8 2.8s-1.8.8-2.8.8-2-.3-2.8-.8-.8-1.8-.8-2.8v-1z" fill="white" opacity="0.8"/>
</svg>
